HIERARCHY
ROOT joint_Root
{
	OFFSET 0.0 0.0 0.0
	CHANNELS 6 Xposition Yposition Zposition Zrotation Xrotation Yrotation 
	JOINT Hips
	{
		OFFSET -0.726466 93.3139 -2.00062
		CHANNELS 6 Xposition Yposition Zposition Zrotation Xrotation Yrotation 
		JOINT Spine
		{
			OFFSET 15.7357 0.0 0.0
			CHANNELS 6 Xposition Yposition Zposition Zrotation Xrotation Yrotation 
			JOINT Chest
			{
				OFFSET 8.98455 -0.406207 0.0
				CHANNELS 6 Xposition Yposition Zposition Zrotation Xrotation Yrotation 
				JOINT Neck
				{
					OFFSET 16.3773 0.0 0.0
					CHANNELS 6 Xposition Yposition Zposition Zrotation Xrotation Yrotation 
					JOINT Head
					{
						OFFSET 6.45672 0.0 0.0
						CHANNELS 6 Xposition Yposition Zposition Zrotation Xrotation Yrotation 
						End Site
						{
							OFFSET 0.0 0.0 0.0
						}
					}
				}
				JOINT Shoulder_L
				{
					OFFSET 12.9942 -0.242716 4.98039
					CHANNELS 6 Xposition Yposition Zposition Zrotation Xrotation Yrotation 
					JOINT UpperArm_L
					{
						OFFSET 5.34809 0.0 0.0
						CHANNELS 6 Xposition Yposition Zposition Zrotation Xrotation Yrotation 
						JOINT LowerArm_L
						{
							OFFSET 24.3286 1.87007e-05 0.0
							CHANNELS 6 Xposition Yposition Zposition Zrotation Xrotation Yrotation 
							JOINT Hand_L
							{
								OFFSET 22.2916 0.0 0.0
								CHANNELS 6 Xposition Yposition Zposition Zrotation Xrotation Yrotation 
								End Site
								{
									OFFSET 0.0 0.0 0.0
								}
							}
						}
					}
				}
				JOINT Shoulder_R
				{
					OFFSET 12.9945 -0.242716 -4.98039
					CHANNELS 6 Xposition Yposition Zposition Zrotation Xrotation Yrotation 
					JOINT UpperArm_R
					{
						OFFSET -5.34813 0.0 0.0
						CHANNELS 6 Xposition Yposition Zposition Zrotation Xrotation Yrotation 
						JOINT LowerArm_R
						{
							OFFSET -24.3289 0.000322201 0.0
							CHANNELS 6 Xposition Yposition Zposition Zrotation Xrotation Yrotation 
							JOINT Hand_R
							{
								OFFSET -22.2915 -0.000108084 0.0
								CHANNELS 6 Xposition Yposition Zposition Zrotation Xrotation Yrotation 
								End Site
								{
									OFFSET 0.0 0.0 0.0
								}
							}
						}
					}
				}
			}
		}
		JOINT UpperLeg_L
		{
			OFFSET -2.19248 -6.46944 0.0
			CHANNELS 6 Xposition Yposition Zposition Zrotation Xrotation Yrotation 
			JOINT LowerLeg_L
			{
				OFFSET 39.0811 0.0 -1.23785e-05
				CHANNELS 6 Xposition Yposition Zposition Zrotation Xrotation Yrotation 
				JOINT Foot_L
				{
					OFFSET 40.9854 0.0 -1.26872e-05
					CHANNELS 6 Xposition Yposition Zposition Zrotation Xrotation Yrotation 
					JOINT Toes_L
					{
						OFFSET 11.7543 0.0 0.0
						CHANNELS 6 Xposition Yposition Zposition Zrotation Xrotation Yrotation 
						End Site
						{
							OFFSET 0.0 0.0 0.0
						}
					}
				}
			}
		}
		JOINT UpperLeg_R
		{
			OFFSET -2.19251 6.46944 0.0
			CHANNELS 6 Xposition Yposition Zposition Zrotation Xrotation Yrotation 
			JOINT LowerLeg_R
			{
				OFFSET -39.0811 -0.00228153 -0.0401928
				CHANNELS 6 Xposition Yposition Zposition Zrotation Xrotation Yrotation 
				JOINT Foot_R
				{
					OFFSET -40.9854 0.0 0.0
					CHANNELS 6 Xposition Yposition Zposition Zrotation Xrotation Yrotation 
					JOINT Toes_R
					{
						OFFSET -11.7543 0.0 0.0
						CHANNELS 6 Xposition Yposition Zposition Zrotation Xrotation Yrotation 
						End Site
						{
							OFFSET 0.0 0.0 0.0
						}
					}
				}
			}
		}
	}
}
MOTION
Frames:	5
Frame Time:	0.0333333
0.000000 0.000000 0.000000 0.000000 0.000000 -0.000000 -2.478350 92.106300 -2.563740 88.118500 -1.045960 3.680880 15.735700 0.000005 -0.000001 64.469200 85.766000 -60.797200 8.984550 -0.406207 -0.000000 0.012102 -3.896970 7.342210 16.377300 -0.000001 -0.000001 1.535810 -2.143990 1.126770 6.456720 -0.000001 -0.000000 2.052660 -0.579014 10.704400 12.994200 -0.242716 4.980390 -85.064900 -10.384800 -64.404800 5.348090 -0.000007 -0.000001 -66.137900 -54.189900 -103.268000 24.328600 0.000019 0.000005 5.514390 2.948560 -61.950500 22.291600 -0.000001 0.000005 19.427200 5.620610 -12.661600 12.994500 -0.242716 -4.980390 90.258000 -0.666258 -68.832300 -5.348130 -0.000001 -0.000004 -37.802400 77.075300 -10.389100 -24.328900 0.000322 -0.000009 23.977900 2.145870 -85.188600 -22.291500 -0.000108 -0.000004 37.644900 5.680110 -19.629600 -2.192480 -6.469440 -0.000000 -168.677000 -14.175100 -2.004800 39.081100 -0.000007 -0.000012 -0.157493 0.430550 20.092400 40.985400 -0.000006 -0.000013 -6.766360 3.162150 -62.534400 11.754300 -0.000000 0.000003 -0.000030 -0.000363 -16.591700 -2.192510 6.469440 -0.000001 175.437000 18.859400 178.561000 -39.081100 -0.002282 -0.040193 -0.082950 0.232330 20.371400 -40.985400 0.000008 0.000006 -3.298220 1.663040 -63.746500 -11.754300 -0.000006 -0.000006 -0.006356 -0.074038 -19.586600
0.000000 0.000000 0.000000 0.000000 0.000000 -0.000000 -2.466780 92.106300 -2.574130 88.116200 -1.106390 3.733720 15.735700 0.000005 -0.000001 64.680400 85.751700 -61.011800 8.984550 -0.406207 -0.000000 0.050674 -3.879530 7.336700 16.377300 -0.000001 -0.000001 1.547170 -2.192090 1.132140 6.456720 -0.000001 -0.000000 2.143970 -0.630311 10.810800 12.994200 -0.242716 4.980390 -85.071300 -10.374200 -64.411000 5.348090 -0.000007 -0.000001 -66.074600 -54.245200 -103.253000 24.328600 0.000019 0.000005 5.460770 2.936960 -61.810100 22.291600 -0.000001 0.000005 19.460300 5.620150 -12.630200 12.994500 -0.242716 -4.980390 90.242700 -0.628031 -68.867900 -5.348130 -0.000001 -0.000004 -37.538100 77.116300 -10.610200 -24.328900 0.000322 -0.000009 23.841900 2.140210 -85.170500 -22.291500 -0.000108 -0.000004 37.711600 5.680380 -19.742100 -2.192480 -6.469440 -0.000000 -168.668000 -14.199800 -1.950450 39.081100 -0.000007 -0.000012 -0.156536 0.427563 20.108500 40.985400 -0.000006 -0.000013 -6.760510 3.140200 -62.545200 11.754300 -0.000000 0.000003 -0.000025 -0.000303 -16.589400 -2.192510 6.469440 -0.000001 175.414000 18.849000 178.601000 -39.081100 -0.002282 -0.040193 -0.082652 0.231529 20.371300 -40.985400 0.000008 0.000006 -3.300140 1.715370 -63.728500 -11.754300 -0.000006 -0.000006 -0.006522 -0.075504 -19.646400
0.000000 0.000000 0.000000 0.000000 0.000000 -0.000000 -2.456200 92.112500 -2.591130 88.141000 -1.156930 3.709270 15.735700 0.000005 -0.000001 64.703100 85.755800 -61.044000 8.984550 -0.406207 -0.000000 0.044105 -3.872550 7.317470 16.377300 -0.000001 -0.000001 1.497960 -2.278600 1.213100 6.456720 -0.000001 -0.000000 2.236550 -0.747059 10.826300 12.994200 -0.242716 4.980390 -85.071900 -10.357100 -64.377500 5.348090 -0.000007 -0.000001 -66.105800 -54.234300 -103.295000 24.328600 0.000019 0.000005 5.358980 2.896220 -61.691400 22.291600 -0.000001 0.000005 19.382500 5.620620 -12.662800 12.994500 -0.242716 -4.980390 90.234800 -0.607552 -68.871000 -5.348130 -0.000001 -0.000004 -36.955400 77.203000 -11.152200 -24.328900 0.000322 -0.000009 23.829200 2.123810 -85.204500 -22.291500 -0.000108 -0.000004 37.728300 5.680110 -19.633200 -2.192480 -6.469440 -0.000000 -168.701000 -14.185900 -1.932350 39.081100 -0.000007 -0.000012 -0.156392 0.428933 20.032400 40.985400 -0.000006 -0.000013 -6.769800 3.099110 -62.513300 11.754300 -0.000000 0.000003 -0.000025 -0.000308 -16.589600 -2.192510 6.469440 -0.000001 175.391000 18.849200 178.569000 -39.081100 -0.002282 -0.040193 -0.082550 0.231538 20.348500 -40.985400 0.000008 0.000006 -3.309500 1.772950 -63.696200 -11.754300 -0.000006 -0.000006 -0.006523 -0.075516 -19.646900
0.000000 0.000000 0.000000 0.000000 0.000000 -0.000000 -2.460450 92.105700 -2.632860 88.143500 -1.323450 3.655160 15.735700 0.000005 -0.000001 65.154600 85.783700 -61.501200 8.984550 -0.406207 -0.000000 0.018698 -3.788930 7.305030 16.377300 -0.000001 -0.000001 1.563980 -2.371530 1.247210 6.456720 -0.000001 -0.000000 2.193350 -0.902836 10.877200 12.994200 -0.242716 4.980390 -85.059600 -10.381600 -64.373400 5.348090 -0.000007 -0.000001 -66.169700 -54.203900 -103.304000 24.328600 0.000019 0.000005 5.290200 2.861570 -61.668200 22.291600 -0.000001 0.000005 19.361500 5.620940 -12.685100 12.994500 -0.242716 -4.980390 90.224700 -0.580242 -68.830700 -5.348130 -0.000001 -0.000004 -36.522100 77.274300 -11.566800 -24.328900 0.000322 -0.000009 23.822700 2.130040 -85.189000 -22.291500 -0.000108 -0.000004 37.797300 5.680090 -19.621400 -2.192480 -6.469440 -0.000000 -168.720000 -14.322300 -2.025450 39.081100 -0.000007 -0.000012 -0.156639 0.427530 20.122100 40.985400 -0.000006 -0.000013 -6.765710 3.033500 -62.540300 11.754300 -0.000000 0.000003 -0.000033 -0.000390 -16.592800 -2.192510 6.469440 -0.000001 175.431000 18.649100 178.413000 -39.081100 -0.002282 -0.040193 -0.084301 0.235325 20.422400 -40.985400 0.000008 0.000006 -3.356380 1.764550 -63.689700 -11.754300 -0.000006 -0.000006 -0.006487 -0.075195 -19.633800
0.000000 0.000000 0.000000 0.000000 0.000000 -0.000000 -2.449410 92.113900 -2.638890 88.174800 -1.333170 3.647320 15.735700 0.000005 -0.000001 64.954700 85.766800 -61.310700 8.984550 -0.406207 -0.000000 0.037918 -3.828680 7.286970 16.377300 -0.000001 -0.000001 1.523170 -2.418560 1.221440 6.456720 -0.000001 -0.000000 2.268070 -0.985518 10.892200 12.994200 -0.242716 4.980390 -85.065900 -10.360500 -64.357400 5.348090 -0.000007 -0.000001 -66.198100 -54.184700 -103.288000 24.328600 0.000019 0.000005 5.247190 2.834990 -61.694900 22.291600 -0.000001 0.000005 19.333800 5.621600 -12.730700 12.994500 -0.242716 -4.980390 90.232500 -0.600816 -68.841600 -5.348130 -0.000001 -0.000004 -36.694100 77.230100 -11.444800 -24.328900 0.000322 -0.000009 23.754400 2.134560 -85.163400 -22.291500 -0.000108 -0.000004 37.712400 5.680260 -19.692900 -2.192480 -6.469440 -0.000000 -168.769000 -14.319300 -2.004320 39.081100 -0.000007 -0.000012 -0.154056 0.422120 20.050200 40.985400 -0.000006 -0.000013 -6.762200 2.992120 -62.501300 11.754300 -0.000000 0.000003 -0.000025 -0.000310 -16.589700 -2.192510 6.469440 -0.000001 175.406000 18.668600 178.404000 -39.081100 -0.002282 -0.040193 -0.083420 0.233206 20.402700 -40.985400 0.000008 0.000006 -3.334600 1.763150 -63.669200 -11.754300 -0.000006 -0.000006 -0.006374 -0.074196 -19.593100
